<svg width="42" height="41" viewBox="0 0 42 41" fill="none" xmlns="http://www.w3.org/2000/svg">
<circle cx="21.1483" cy="20.4248" r="19.7866" stroke="#8F00FF" stroke-width="1.27656"/>
<path fill-rule="evenodd" clip-rule="evenodd" d="M22.2673 11.9799C22.4617 12.041 22.6315 12.1625 22.752 12.3268C22.8725 12.4911 22.9375 12.6895 22.9375 12.8933V17.6803H26.7672C26.9423 17.6803 27.1141 17.7282 27.2639 17.819C27.4136 17.9098 27.5356 18.0399 27.6166 18.1952C27.6975 18.3505 27.7343 18.525 27.723 18.6998C27.7117 18.8745 27.6526 19.0428 27.5522 19.1864L20.8503 28.7605C20.7337 28.9276 20.5668 29.0532 20.3739 29.1189C20.1809 29.1845 19.9721 29.187 19.7777 29.1258C19.5833 29.0646 19.4136 28.9429 19.2931 28.7786C19.1726 28.6142 19.1077 28.4157 19.1078 28.2119V23.4248H15.2782C15.103 23.4249 14.9312 23.377 14.7815 23.2862C14.6317 23.1954 14.5097 23.0653 14.4287 22.91C14.3478 22.7547 14.311 22.5802 14.3223 22.4054C14.3337 22.2307 14.3927 22.0624 14.4931 21.9188L21.195 12.3447C21.3118 12.1779 21.4788 12.0527 21.6716 11.9872C21.8644 11.9218 22.0731 11.9196 22.2673 11.9808V11.9799Z" fill="#8F00FF"/>
</svg>
